<?xml version="1.0" standalone="no"?>
        <svg width="501" height="501" version="1.1" xmlns="http://www.w3.org/2000/svg">
        <path d="M501 251 L24 356 L499 222 L10 317 L499 280 L2 282 L492 314 L1 251 L499 277 L2 279 L501 251 L125 466 L500 272 L1 246 L482 345 L4 291 L495 304 L2 222 L384 462 L6 197 L481 154 L37 380 L492 185 L23 354 L498 218 L1 229 L379 465 L384 39 L367 472 L5 202 L475 361 L47 396 L480 350 L6 300 L424 431 L2 282 L495 302 L3 213 L471 368 L26 140 L329 488 L431 77 L313 493 L35 123 L272 500 L59 90 L238 500 L70 77 L216 498 L57 92 L233 500 L76 72 L222 499 L481 154 L8 188 L476 143 L205 496 L55 95 L190 493 L493 190 L24 145 L268 500 L457 110 L293 497 L442 90 L20 347 L491 182 L169 487 L136 28 L138 474 L500 258 L1 243 L497 208 L22 351 L454 396 L15 335 L491 320 L5 296 L434 420 L15 167 L490 178 L19 156 L483 343 L3 287 L498 287 L96 447 L494 305 L59 90 L484 341 L62 415 L494 194 L2 277 L500 246 L122 465 L500 232 L30 368 L460 387 L10 320 L477 356 L7 305 L418 436 L88 61 L169 487 L52 99 L500 272 L7 194 L500 233 L2 274 L484 161 L10 181 L474 138 L287 498 L440 88 L19 345 L490 179 L1 260 L487 332 L61 413 L493 190 L178 490 L94 56 L431 424 L1 255 L461 115 L319 491 L413 61 L288 498 L14 169 L480 151 L216 498 L34 126 L499 221 L3 218 L464 121 L329 488 L399 49 L308 494 L24 144 L325 489 L446 95 L37 380 L488 328 L1 257 L498 283 L131 470 L500 258 L3 285 L485 338 L46 394 L500 263 L27 363 L500 229 L1 272 L425 429 L91 58 L133 471 L107 46 L272 500 L12 175 L487 170 L16 337 L434 81 L14 331 L456 392 L34 375 L500 238 L151 480 L50 101 L493 313 L1 233 L467 126 L2 225 L498 216 L37 121 L335 486 L450 100 L261 500 L10 182 L387 460 L378 35 L357 477 L7 305 L462 383 L28 364 L489 326 L1 238 L483 158 L299 496 L22 148 L263 500 L494 196 L3 216 L462 118 L300 495 L447 96 L257 500 L8 188 L229 500 L401 51 L158 483 L144 24 L90 442 L123 35 L205 496 L375 34 L354 478 L468 127 L338 485 L367 29 L202 496 L68 79 L495 302 L84 437 L118 39 L76 429 L451 400 L51 401 L472 367 L67 420 L481 348 L5 297 L497 294 L48 104 L131 470 L84 64 L415 439 L11 323 L492 316 L6 199 L496 299 L74 74 L127 468 L45 109 L500 257 L19 156 L294 497 L1 235 L490 323 L26 361 L446 95 L254 500 L428 75 L123 466 L42 113 L490 178 L23 147 L486 167 L307 494 L1 230 L493 310 L138 474 L497 293 L10 182 L500 241 L2 279 L431 77 L13 329 L390 458 L34 375 L450 401 L89 441 L468 374 L6 302 L489 326 L17 341 L439 86 L283 498 L13 173 L475 141 L361 475 L386 40 L211 497 L7 193 L493 190 L261 500 L104 48 L145 477 L157 19 L34 375 L475 361 L13 328 L400 451 L55 406 L418 436 L370 31 L351 479 L455 107 L266 500 L109 45 L74 427 L412 441 L79 68 L500 247 L4 210 L494 194 L21 350 L367 472 L1 236 L500 271 L29 134 L493 188 L176 489 L56 94 L498 214 L279 499 L62 86 L485 337 L40 386 L353 479 L24 356 L445 94 L320 491 L8 310 L412 441 L407 56 L397 453 L81 434 L444 409 L96 54 L140 475 L52 99 L500 254 L1 232 L251 501 L394 46 L218 498 L499 279 L79 433 L73 75 L500 252 L1 229 L439 86 L10 317 L462 384 L161 484 L54 96 L482 345 L1 265 L428 75 L422 433 L412 60 L163 485 L367 29 L328 488 L495 197 L197 495 L5 202 L460 114 L26 141 L121 464 L37 121 L487 169 L368 471 L480 151 L7 194 L252 500 L1 251 L489 326 L224 499 L496 299 L2 279 L500 272 L216 498 L392 45 L13 328 L176 12 L10 317 L479 353 L101 451 L439 415 L94 445 L35 125 L331 487 L451 101 L30 133 L500 232 L82 66 L498 213 L96 54 L61 413 L474 138 L358 476 L37 380 L444 409 L17 341 L372 469 L79 68 L229 500 L1 257 L499 225 L21 151 L117 462 L432 423 L418 65 L16 164 L481 347 L30 368 L153 20 L143 476 L365 28 L197 495 L66 82 L493 313 L232 500 L432 78 L438 416 L40 386 L164 16 L150 479 L463 382 L375 34 L406 446 L351 22 L350 480 L55 406 L70 77 L479 148 L15 166 L114 460 L434 420 L97 53 L474 138 L345 482 L39 117 L498 213 L2 222 L496 202 L375 467 L16 337 L194 7 L316 492 L276 2 L3 216 L191 493 L130 31 L182 491 L1 240 L288 498 L294 4 L468 374 L73 426 L477 356 L344 19 L348 481 L453 104 L39 118 L429 76 L12 176 L391 457 L404 53 L337 485 L45 392 L67 81 L123 466 L423 432 L458 111 L27 138 L76 429 L499 276 L9 314 L157 19 L6 300 L500 263 L1 249 L499 224 L341 484 L28 364 L150 22 L5 296 L500 260 L300 6 L294 497 L16 164 L475 141 L82 66 L127 468 L395 455 L485 163 L4 208 L491 181 L8 190 L111 458 L464 380 L26 360 L494 305 L11 322 L404 448 L413 61 L39 117 L104 453 L466 378 L22 351 L356 477 L138 27 L473 136 L24 145 L418 65 L417 437 L3 287 L491 320 L357 24 L196 494 L458 390 L176 489 L169 14 L158 483 L500 265 L66 419 L105 47 L497 210 L276 499 L461 115 L443 410 L441 89 L100 51 L411 59 L41 114 L383 39 L210 497 L372 32 L43 111 L113 459 L130 31 L136 473 L415 439 L356 24 L485 338 L241 500 L498 287 L227 499 L399 49 L274 499 L496 202 L1 241 L235 500 L486 335 L31 370 L67 81 L22 351 L208 4 L101 451 L6 197 L204 496 L1 263 L500 230 L26 360 L148 22 L4 290 L140 26 L2 274 L193 494 L354 23 L47 105 L344 19 L187 492 L7 305 L175 12 L471 133 L450 401 L466 123 L429 425 L435 82 L31 131 L88 440 L390 458 L483 158 L5 205 L268 1 L497 208 L337 485 L61 413 L320 491 L365 28 L493 313 L101 451 L127 33 L2 274 L492 185 L258 500 L481 348 L351 22 L193 494 L191 8 L15 334 L384 462 L402 52 L104 48 L1 272 L469 129 L181 10 L185 492 L294 4 L2 224 L96 447 L351 479 L500 236 L378 466 L38 382 L288 498 L227 2 L5 204 L88 440 L498 285 L25 358 L499 227 L1 230 L425 72 L13 173 L486 166 L455 395 L478 147 L11 179 L252 1 L498 216 L395 455 L145 477 L491 320 L202 496 L475 140 L166 15 L11 323 L178 490 L2 280 L500 238 L64 417 L22 150 L463 119 L357 477 L498 287 L372 32 L109 45 L399 49 L224 499 L448 404 L450 100 L76 72 L61 413 L19 157 L475 140 L88 61 L418 65 L31 131 L310 493 L67 420 L495 201 L277 2 L489 175 L18 343 L205 5 L99 449 L480 350 L9 314 L65 83 L493 191 L3 214 L60 412 L392 456 L501 251 L4 294 L469 372 L279 499 L477 357 L271 500 L44 391 L422 433 L424 70 L14 170 L249 1 L25 143 L73 426 L500 272 L8 311 L251 501 L481 348 L4 293 L158 483 L386 461 L478 147 L76 72 L497 294 L367 29 L113 42 L344 19 L125 35 L1 251 L429 76 L82 66 L85 438 L288 498 L453 397 L32 372 L316 492 L443 91 L238 500 L406 55 L43 111 L364 28 L143 25 L341 17 L49 102 L134 472 L428 426 L499 222 L1 246 L84 437 L33 127 L416 63 L91 58 L254 500 L484 160 L282 2 L472 134 L101 50 L383 39 L500 272 L402 449 L145 477 L343 483 L454 105 L1 272 L433 79 L277 499 L10 181 L490 178 L462 384 L293 497 L499 222 L22 148 L45 392 L251 501 L69 423 L5 202 L265 1 L8 191 L172 13 L334 15 L150 22 L141 475 L363 27 L313 493 L191 8 L328 13 L474 363 L106 455 L433 422 L485 163 L365 473 L479 148 L213 498 L1 257 L61 413 L14 170 L166 15 L173 488 L22 351 L20 154 L424 70 L2 227 L493 310 L90 442 L125 35 L396 47 L500 254 L437 417 L500 238 L404 448 L51 401 L2 221 L291 4 L467 126 L214 3 L44 110 L489 175 L404 448 L114 460 L35 125 L232 1 L499 222 L376 466 L380 37 L216 498 L384 462 L182 491 L175 12 L364 28 L12 325 L456 392 L500 272 L70 424 L500 244 L41 387 L1 236 L121 37 L2 219 L495 199 L372 469 L197 495 L492 316 L407 445 L10 317 L185 492 L341 17 L218 3 L285 498 L411 59 L95 55 L4 211 L493 188 L58 410 L470 131 L483 343 L436 83 L341 484 L107 455 L272 500 L65 418 L7 305 L61 88 L2 274 L500 236 L466 378 L495 197 L317 10 L201 6 L46 106 L127 468 L14 331 L188 8 L191 493 L64 84 L481 154 L297 496 L431 424 L243 500 L95 446 L163 16 L394 46 L134 29 L3 288 L500 246 L390 458 L498 213 L260 1 L334 486 L166 486 L28 364 L119 463 L460 387 L357 477 L460 114 L300 6 L211 4 L276 499 L1 246 L59 90 L489 176 L407 56 L102 49 L8 191 L92 57 L13 173 L20 347 L474 363 L357 477 L235 500 L1 251 L35 376 L445 94 L78 69 L424 70 L437 417 L498 288 L415 439 L500 263 L391 44 L196 7 L358 25 L114 41 L274 2 L201 6 L276 2 L351 22 L462 117 L24 144 L73 426 L169 487 L14 331 L59 411 L4 207 L466 125 L383 462 L156 482 L37 380 L308 494 L442 411 L488 329 L477 145 L4 290 L194 494 L474 138 L418 65 L500 243 L486 335 L2 282 L56 407 L22 351 L6 300 L18 158 L82 66 L199 6 L110 44 L402 52 L497 207 L1 229 L310 8 L147 23 L296 5 L227 2 L274 2 L208 497 L450 401 L185 492 L53 97 L9 187 L2 274 L2 227 L499 224 L411 442 L319 491 L494 196 L370 470 L241 500 L147 478 L94 445 L37 121 L391 44 L300 6 L351 22 L131 31 L191 8 L125 35 L134 472 L90 442 L51 401 L91 443 L441 412 L399 452 L500 268 L7 308 L35 376 L56 407 L39 383 L20 154 L64 84 L454 105 L420 67 L314 492 L265 500 L229 500 L117 462 L81 434 L29 134 L456 109 L492 185 L4 208 L117 39 L117 39 Z" stroke="black" stroke-width="0.5" fill="none" />
</svg>