<?xml version="1.0" standalone="no"?>
    <svg width="1001" height="1001" version="1.1" xmlns="http://www.w3.org/2000/svg">
    <path d="M1001 501 L45 708 L998 447 L16 625 L996 566 L4 563 L985 625 L1 529 L997 563 L15 622 L997 444 L44 705 L984 373 L40 696 L997 441 L15 619 L997 560 L1 526 L1000 532 L246 931 L1001 501 L1 522 L1000 529 L32 676 L1000 491 L20 640 L975 658 L1 532 L978 649 L1 475 L774 919 L3 447 L952 716 L9 407 L744 937 L20 361 L969 325 L22 355 L750 934 L768 78 L725 947 L15 379 L979 646 L4 438 L986 622 L1 526 L817 888 L3 548 L963 690 L1 485 L993 413 L28 664 L894 809 L21 643 L970 673 L4 444 L997 438 L14 616 L896 807 L23 352 L968 322 L73 760 L961 305 L12 394 L949 279 L413 993 L170 125 L388 988 L982 364 L12 607 L996 435 L328 970 L994 419 L316 965 L197 104 L290 954 L1000 479 L58 733 L998 453 L52 722 L921 771 L5 569 L957 705 L94 792 L945 730 L3 453 L768 923 L1 482 L992 410 L27 661 L967 682 L3 450 L997 444 L337 973 L271 56 L331 971 L167 128 L382 986 L981 361 L39 308 L682 967 L787 91 L673 970 L37 314 L560 997 L111 187 L479 1000 L130 165 L463 999 L151 143 L373 984 L971 331 L19 367 L980 643 L154 861 L986 622 L10 404 L953 713 L44 296 L980 358 L379 986 L161 134 L438 997 L109 189 L475 1000 L91 214 L994 582 L241 928 L1000 497 L1 519 L1000 526 L243 929 L1000 472 L18 631 L995 573 L48 713 L998 453 L18 631 L867 840 L8 585 L949 279 L13 388 L719 950 L766 77 L708 956 L760 73 L699 959 L42 302 L573 995 L888 184 L607 989 L871 165 L600 990 L85 222 L435 996 L105 194 L548 998 L34 319 L982 367 L1 510 L1000 494 L238 926 L1000 469 L55 727 L914 782 L6 576 L871 836 L134 161 L485 1000 L115 182 L989 607 L151 858 L977 349 L27 340 L959 302 L72 758 L940 739 L8 413 L942 265 L576 995 L928 241 L513 1000 L923 233 L1 501 L1000 491 L61 739 L910 787 L13 613 L983 370 L39 693 L994 422 L1 469 L819 886 L4 441 L996 435 L65 254 L631 983 L894 192 L613 988 L876 170 L42 699 L957 705 L11 401 L987 616 L25 346 L544 999 L32 325 L963 311 L361 981 L104 197 L980 643 L19 634 L854 854 L9 591 L991 597 L145 852 L994 582 L55 727 L952 716 L102 802 L937 744 L2 538 L973 664 L161 867 L977 652 L4 444 L924 235 L5 435 L989 394 L54 276 L579 994 L869 163 L597 991 L64 257 L432 996 L82 227 L1000 491 L26 343 L988 613 L111 187 L997 560 L251 934 L999 544 L4 560 L959 699 L92 789 L1000 507 L276 947 L194 105 L824 882 L6 425 L980 643 L23 352 L538 999 L931 246 L13 610 L888 184 L535 999 L217 89 L235 924 L854 147 L569 996 L39 308 L977 349 L1 522 L997 557 L117 179 L990 603 L20 640 L850 858 L10 597 L981 361 L1 507 L763 926 L763 75 L747 936 L48 288 L576 995 L867 161 L39 693 L962 693 L29 667 L886 819 L21 358 L532 1000 L214 91 L227 919 L999 460 L11 398 L1000 526 L49 285 L976 346 L28 337 L958 299 L582 994 L949 279 L619 986 L903 204 L646 979 L70 246 L994 422 L31 673 L882 824 L6 573 L916 779 L2 544 L965 685 L1 482 L929 243 L2 460 L942 736 L70 755 L1001 501 L274 946 L149 145 L367 982 L257 64 L149 856 L854 147 L554 998 L109 189 L981 640 L24 349 L967 319 L370 983 L107 192 L460 999 L89 217 L358 980 L73 241 L652 977 L910 214 L637 982 L899 199 L15 619 L991 404 L1 479 L967 682 L2 541 L923 768 L51 719 L954 711 L100 799 L939 741 L143 151 L982 637 L18 631 L896 807 L172 123 L822 884 L744 64 L667 972 L914 219 L1 479 L594 992 L56 271 L988 388 L394 989 L985 376 L15 619 L934 251 L9 410 L529 1000 L852 145 L233 923 L843 136 L192 894 L936 747 L117 822 L850 858 L33 679 L878 829 L136 158 L501 1001 L909 212 L625 985 L880 175 L44 705 L995 428 L1 519 L940 262 L14 385 L977 652 L20 640 L782 914 L64 744 L999 460 L55 727 L863 845 L132 163 L990 600 L257 937 L996 569 L2 535 L999 538 L296 957 L102 199 L328 970 L69 249 L637 982 L952 285 L11 401 L992 407 L26 658 L968 679 L23 649 L774 919 L768 78 L376 985 L262 61 L179 884 L288 48 L308 962 L62 260 L987 385 L519 1000 L19 364 L453 998 L1000 507 L80 771 L961 696 L3 554 L812 892 L123 829 L836 871 L199 102 L225 918 L999 457 L12 394 L991 404 L51 282 L974 340 L379 986 L794 96 L690 963 L758 72 L744 937 L34 682 L963 690 L28 664 L867 161 L241 928 L222 85 L541 999 L29 334 L957 296 L655 976 L741 62 L819 886 L167 128 L222 916 L194 105 L177 882 L936 747 L109 812 L949 722 L59 736 L847 861 L207 96 L529 1000 L886 182 L12 607 L929 243 L679 968 L727 55 L652 977 L956 293 L33 322 L1000 504 L450 998 L14 385 L984 373 L92 212 L1000 522 L1 516 L994 419 L30 670 L890 814 L163 869 L192 107 L147 854 L254 65 L364 982 L130 165 L219 914 L998 453 L479 1000 L1000 516 L1 513 L993 416 L7 419 L971 670 L107 192 L986 619 L1 522 L588 993 L892 189 L14 616 L997 557 L249 932 L999 541 L4 557 L858 151 L241 928 L1000 522 L96 794 L776 918 L829 123 L187 890 L907 792 L113 817 L867 840 L45 708 L954 711 L6 576 L995 573 L419 994 L80 230 L975 343 L16 376 L939 260 L1 516 L878 172 L782 914 L87 782 L296 44 L316 965 L65 254 L986 382 L13 391 L990 401 L1 475 L968 679 L2 538 L976 655 L10 404 L1000 532 L488 1000 L204 98 L296 957 L59 265 L628 984 L725 54 L444 997 L867 161 L1 510 L993 413 L9 407 L447 998 L1001 501 L65 747 L946 727 L85 779 L812 892 L62 741 L834 873 L809 107 L444 997 L128 167 L212 909 L998 450 L47 711 L959 699 L42 699 L995 428 L33 679 L964 687 L154 140 L992 594 L254 936 L276 54 L382 986 L268 58 L302 959 L931 755 L123 829 L768 923 L826 121 L569 996 L940 262 L544 999 L755 70 L687 964 L961 305 L664 973 L37 687 L845 863 L192 894 L836 130 L782 914 L7 579 L897 804 L699 42 L817 888 L83 776 L293 45 L70 755 L741 939 L130 836 L804 897 L167 873 L260 62 L69 752 L943 733 L177 119 L394 989 L807 105 L829 878 L752 69 L682 967 L918 225 L1 513 L1000 472 L136 158 L991 597 L457 999 L739 61 L901 799 L175 121 L145 852 L251 67 L67 750 L747 936 L932 249 L56 271 L290 954 L49 285 L997 441 L1 526 L979 646 L75 238 L977 349 L15 382 L983 370 L94 209 L482 1000 L1000 529 L293 956 L1000 513 L475 1000 L21 358 L972 334 L82 227 L346 976 L72 243 L986 379 L516 1000 L850 143 L204 903 L100 202 L544 999 L894 192 L5 435 L996 432 L11 603 L884 179 L789 909 L62 741 L1000 485 L19 637 L994 579 L494 1000 L134 161 L370 983 L763 75 L352 978 L87 219 L453 998 L736 59 L664 973 L912 217 L1 475 L850 143 L843 865 L204 98 L526 1000 L2 544 L631 983 L952 285 L34 319 L288 953 L43 299 L916 222 L87 219 L199 899 L931 755 L5 566 L958 702 L388 988 L288 48 L699 959 L964 314 L25 346 L962 308 L358 980 L100 202 L978 649 L401 990 L990 398 L13 388 L422 994 L722 52 L441 997 L865 158 L1 507 L992 407 L24 652 L973 664 L22 646 L664 973 L73 760 L716 952 L968 322 L708 956 L932 249 L75 238 L907 209 L497 1000 L999 541 L1 526 L996 435 L115 182 L566 996 L594 9 L939 741 L89 784 L319 34 L38 690 L873 834 L814 111 L840 867 L121 826 L165 130 L143 850 L763 926 L65 747 L246 70 L246 931 L878 829 L17 628 L983 631 L2 535 L998 447 L475 1000 L797 98 L826 880 L128 834 L249 69 L37 687 L961 696 L385 987 L799 100 L696 961 L285 49 L177 882 L85 222 L1000 488 L235 924 L999 466 L17 628 L901 799 L119 824 L161 134 L993 413 L38 311 L919 227 L676 969 L750 67 L910 787 L58 733 L858 850 L8 588 L616 987 L901 202 L92 212 L914 219 L58 268 L217 912 L302 42 L394 989 L8 413 L972 667 L22 355 L990 398 L1 472 L847 140 L38 311 L554 998 L999 460 L51 719 L957 705 L687 37 L438 997 L2 457 L361 981 L125 170 L209 907 L886 819 L138 156 L956 293 L30 331 L285 952 L20 361 L982 367 L121 175 L998 554 L507 1000 L990 603 L27 340 L989 394 L1 469 L845 138 L39 308 L834 128 L878 829 L230 921 L382 15 L13 610 L912 784 L311 963 L923 768 L207 905 L998 447 L43 702 L869 838 L260 939 L343 26 L43 702 L658 975 L733 58 L450 998 L17 373 L974 340 L725 947 L136 843 L797 903 L936 254 L17 373 L274 946 L940 262 L140 154 L507 1000 L993 588 L302 959 L62 260 L910 214 L854 854 L858 151 L1 504 L991 404 L23 649 L890 814 L696 40 L812 892 L48 713 L840 867 L62 741 L243 72 L33 679 L676 969 L282 51 L80 771 L652 977 L184 113 L1000 522 L12 394 L988 613 L519 1000 L3 551 L963 690 L730 56 L817 888 L262 940 L988 613 L1 519 L472 1 L1 501 L856 149 L850 858 L819 115 L40 305 L976 346 L1 504 L937 257 L36 316 L924 235 L705 957 L77 766 L937 744 L172 878 L55 274 L199 899 L997 444 L36 685 L314 37 L705 957 L149 856 L755 931 L978 352 L9 594 L880 175 L115 182 L840 134 L2 466 L998 554 L13 613 L990 401 L52 279 L918 225 L861 847 L268 943 L15 379 L982 367 L11 603 L352 23 L94 792 L646 979 L956 293 L163 132 L909 212 L111 187 L894 192 L856 852 L117 822 L771 921 L104 804 L909 789 L7 582 L950 719 L58 733 L1000 475 L404 991 L719 51 L625 985 L560 4 L607 989 L945 271 L1 526 L532 1000 L985 625 L16 625 L905 794 L319 967 L80 230 L143 850 L713 953 L776 83 L730 945 L73 760 L829 878 L784 89 L919 774 L863 156 L96 207 L899 199 L557 997 L591 9 L2 466 L469 1 L4 441 L971 670 L26 658 L241 73 L11 600 L510 1000 L921 230 L702 958 L308 39 L184 888 L422 7 L15 619 L907 792 L747 65 L463 999 L1000 516 L187 111 L840 134 L914 782 L774 82 L472 1000 L19 367 L282 950 L807 896 L693 39 L40 305 L787 91 L967 682 L32 676 L880 826 L227 919 L379 15 L12 607 L998 551 L504 1000 L17 628 L996 569 L607 12 L982 634 L25 346 L982 364 L123 172 L838 132 L199 102 L971 331 L725 947 L987 385 L5 432 L463 2 L189 892 L705 957 L167 873 L52 279 L973 337 L134 161 L117 822 L78 233 L905 207 L165 130 L217 912 L836 871 L279 949 L7 419 L385 987 L711 47 L367 982 L6 425 L265 942 L932 752 L4 560 L959 302 L682 967 L999 466 L1 510 L340 27 L42 699 L843 865 L22 646 L975 658 L544 999 L982 637 L708 45 L364 982 L998 453 L733 943 L977 349 L9 591 L349 24 L970 328 L55 274 L685 36 L435 996 L993 585 L2 538 L482 1 L1 529 L352 978 L899 802 L331 971 L83 225 L172 878 L682 967 L20 640 L978 649 L600 11 L576 995 L971 670 L2 544 L934 750 L871 165 L177 119 L847 140 L98 204 L897 197 L170 125 L878 172 L939 741 L170 876 L739 940 L989 394 L14 385 L947 276 L7 582 L331 30 L1 501 L314 37 L444 997 L1000 497 L613 13 L997 557 L1 482 L856 149 L34 319 L161 867 L49 285 L921 230 L882 824 L658 26 L42 302 L585 8 L937 744 L115 819 L809 894 L102 802 L625 985 L83 776 L949 722 L64 744 L768 923 L140 847 L47 290 L113 817 L943 733 L600 11 L993 588 L716 49 L401 990 L894 809 L936 254 L1 501 L975 343 L29 334 L990 600 L121 175 L752 69 L469 1000 L989 607 L711 47 L38 311 L936 254 L719 950 L187 890 L460 2 L6 428 L995 425 L11 600 L998 548 L628 17 L58 268 L579 7 L3 453 L260 939 L934 750 L398 990 L999 460 L758 929 L130 836 L616 987 L107 809 L45 293 L784 89 L202 100 L834 128 L217 89 L824 119 L755 931 L992 407 L747 936 L165 871 L257 64 L299 958 L797 903 L51 719 L994 579 L100 799 L361 20 L968 322 L56 271 L557 4 L934 750 L789 92 L222 85 L9 591 L516 1000 L987 616 L15 622 L391 13 L241 928 L2 457 L838 132 L840 867 L276 947 L852 856 L61 739 L158 136 L376 985 L111 187 L209 907 L696 961 L963 311 L398 11 L603 990 L149 856 L896 807 L27 661 L497 1000 L850 143 L918 776 L940 262 L30 331 L974 340 L319 34 L2 463 L969 676 L554 998 L588 8 L2 463 L999 541 L643 21 L54 276 L916 222 L154 140 L58 733 L792 907 L1000 472 L768 923 L768 78 L225 83 L822 117 L276 54 L343 975 L69 249 L910 214 L661 974 L519 1 L58 268 L460 2 L962 308 L9 591 L994 422 L6 425 L986 382 L722 949 L91 787 L349 24 L1 522 L995 425 L763 926 L308 962 L782 914 L1000 513 L96 794 L43 299 L582 7 L897 804 L20 640 L432 996 L37 687 L876 831 L413 993 L9 407 L973 664 L594 9 L992 594 L453 998 L886 182 L945 730 L945 271 L7 579 L219 87 L1 497 L921 230 L40 305 L91 787 L652 977 L197 897 L997 438 L36 685 L814 890 L44 705 L956 708 L588 993 L963 690 L38 690 L151 143 L972 334 L337 28 L40 696 L958 702 L897 197 L212 92 L6 573 L998 548 L725 54 L649 978 L49 716 L863 845 L937 257 L143 151 L836 130 L268 58 L78 768 L658 975 L182 886 L730 945 L334 972 L685 36 L1000 488 L779 916 L69 752 L831 876 L299 958 L52 279 L119 824 L413 8 L59 265 L453 3 L7 422 L986 379 L13 388 L450 3 L64 257 L407 9 L958 299 L485 1 L548 998 L999 457 L394 989 L984 373 L716 952 L973 337 L107 192 L845 138 L192 107 L5 569 L924 766 L869 163 L184 113 L444 997 L1000 482 L1 519 L994 422 L760 928 L72 758 L37 314 L982 367 L98 204 L182 886 L419 7 L607 989 L204 903 L1 469 L235 924 L594 992 L928 760 L410 992 L884 822 L25 655 L238 75 L763 75 L288 48 L725 54 L994 579 L2 535 L939 741 L943 268 L500 1 L954 290 L31 328 L928 241 L888 817 L204 903 L637 982 L100 799 L513 1000 L179 117 L797 98 L187 890 L1 482 L355 979 L705 44 L979 646 L19 637 L1000 479 L856 852 L873 167 L1 516 L175 880 L282 51 L817 113 L42 302 L690 38 L349 977 L23 649 L233 78 L11 600 L914 782 L937 257 L507 1 L909 212 L70 246 L401 11 L246 931 L5 432 L1000 475 L834 873 L425 995 L863 845 L19 637 L990 600 L670 971 L70 755 L33 322 L55 727 L952 716 L950 282 L36 316 L854 147 L170 125 L1 494 L961 696 L4 557 L491 1 L982 367 L634 19 L290 47 L708 45 L622 986 L227 919 L361 20 L73 241 L113 817 L607 989 L876 170 L117 179 L576 6 L3 450 L999 538 L792 907 L54 725 L953 713 L894 192 L526 1 L3 450 L314 37 L7 422 L978 352 L871 836 L254 936 L936 747 L394 989 L716 49 L243 72 L750 67 L673 970 L918 225 L507 1000 L130 836 L802 899 L457 999 L824 882 L779 85 L217 89 L7 422 L305 40 L687 37 L325 32 L450 998 L829 878 L998 551 L799 100 L982 637 L2 541 L999 544 L819 886 L80 771 L416 993 L996 569 L47 711 L422 994 L838 869 L24 652 L325 969 L65 254 L916 222 L1 494 L994 419 L8 413 L299 43 L391 988 L91 787 L807 896 L522 1000 L976 655 L954 290 L962 693 L702 43 L249 69 L744 64 L999 535 L1 532 L1000 507 L75 763 L519 1000 L929 758 L942 265 L901 799 L591 9 L358 980 L998 450 L17 628 L491 1 L43 299 L655 25 L334 29 L1 479 L199 899 L696 961 L314 964 L27 661 L964 687 L585 993 L214 910 L2 460 L988 388 L28 337 L51 719 L834 873 L836 130 L207 96 L831 125 L425 6 L619 986 L919 774 L554 998 L971 670 L903 204 L80 230 L852 145 L1 497 L182 886 L931 755 L588 993 L268 943 L11 401 L992 410 L16 625 L986 382 L32 325 L865 158 L187 111 L4 563 L167 873 L942 736 L98 797 L995 576 L843 865 L416 993 L1000 482 L4 438 L241 928 L544 999 L869 163 L28 337 L36 685 L147 147 L934 251 L18 370 L965 316 L379 15 L65 254 L444 4 L817 113 L230 80 L779 85 L115 182 L450 3 L752 69 L299 43 L628 17 L340 27 L77 235 L140 847 L784 912 L996 435 L194 896 L890 814 L1000 497 L64 744 L32 325 L926 238 L867 840 L40 696 L961 696 L949 279 L640 20 L981 361 L130 165 L5 566 L346 976 L104 804 L711 954 L967 319 L982 637 L961 305 L26 343 L33 679 L997 438 L14 616 L438 997 L755 931 L161 867 L1 529 L1000 504 L867 840 L631 983 L219 914 L882 824 L861 154 L192 107 L8 416 L977 349 L649 23 L44 296 L472 1 L51 282 L782 87 L279 52 L172 878 L591 992 L319 967 L750 934 L991 404 L619 15 L352 23 L585 8 L352 978 L98 204 L886 182 L165 130 L9 410 L154 140 L912 217 L975 658 L482 1000 L741 939 L89 784 L37 314 L296 957 L47 711 L352 23 L566 5 L44 296 L814 111 L526 1 L934 251 L39 308 L82 774 L952 716 L619 986 L892 812 L997 563 L413 993 L134 840 L2 541 L115 819 L993 585 L428 995 L75 763 L265 59 L649 23 L929 243 L6 576 L880 175 L1000 529 L792 907 L485 1000 L812 892 L999 541 L733 58 L316 36 L78 233 L282 51 L388 988 L984 373 L13 613 L26 343 L981 361 L11 600 L23 352 L989 394 L733 943 L177 882 L497 1000 L257 937 L6 425 L969 676 L25 655 L161 867 L945 730 L67 750 L834 873 L995 573 L96 794 L361 981 L5 432 L999 466 L779 916 L996 432 L192 894 L894 809 L610 988 L262 940 L54 725 L999 466 L10 404 L149 145 L923 233 L693 962 L501 1001 L716 952 L355 979 L573 995 L865 158 L535 2 L802 102 L212 92 L1 494 L600 11 L305 40 L747 65 L463 2 L699 42 L974 340 L987 616 L856 852 L990 603 L907 792 L73 760 L233 923 L554 998 L789 909 L1000 526 L807 105 L172 123 L444 4 L119 177 L491 1000 L847 140 L413 8 L123 172 L13 391 L31 673 L959 699 L946 274 L28 337 L958 299 L134 161 L401 11 L573 6 L364 19 L548 3 L58 268 L931 246 L705 957 L194 896 L1 488 L165 130 L901 202 L82 227 L276 54 L774 82 L235 77 L61 739 L1000 482 L817 888 L438 997 L719 51 L319 34 L676 32 L923 233 L62 260 L319 967 L111 814 L4 560 L89 784 L943 733 L1000 513 L890 187 L631 983 L789 909 L1000 507 L943 268 L1 522 L143 850 L897 804 L125 831 L246 70 L85 222 L149 856 L340 974 L569 996 L225 918 L358 21 L138 156 L376 985 L892 812 L998 551 L302 959 L479 1000 L779 85 L52 279 L936 254 L1000 519 L13 391 L9 591 L952 285 L1000 482 L249 932 L510 1000 L931 755 L993 588 L907 792 L603 990 L136 843 L787 910 L640 981 L878 829 L999 544 L873 167 L167 128 L349 24 L682 34 L475 1 L634 19 L989 394 L962 308 L968 679 L3 447 L1000 532 L931 246 L149 145 L15 382 L104 197 L367 982 L894 809 L8 585 L976 346 L130 165 L1 479 L230 921 L130 836 L30 670 L994 419 L613 13 L497 1 L367 19 L463 2 L566 5 L744 64 L909 212 L156 138 L890 187 L661 27 L836 130 L784 89 L971 331 L22 355 L31 673 L6 428 L6 573 L69 752 L37 687 L996 569 L968 679 L986 622 L529 1000 L457 999 L274 946 L928 760 L843 865 L661 974 L852 856 L991 597 L516 1000 L457 999 L696 961 L747 936 L167 873 L1 501 L990 401 L19 364 L104 197 L42 302 L104 804 L145 852 L100 799 L69 752 L11 600 L161 867 L296 957 L413 993 L325 969 L246 931 L199 899 L646 979 L722 52 L600 11 L325 32 L175 121 L276 54 L741 62 L652 24 L548 3 L422 7 L774 82 L54 276 L758 72 L233 78 L1 510 L161 867 L132 838 L89 784 L54 725 L953 713 L49 716 L999 457 L965 316 L708 956 L807 896 L999 538 L491 1000 L282 950 L27 340 L47 711 L996 435 L13 613 L13 613 Z" stroke="black" stroke-width="0.5" fill="none" />
</svg>